:FULLY-SPECIFIED
:FORCE-ALL-JOINTS-BE-3DOF
:DEGREES
259
root 9.44593 16.4091 -0.317308 9.24922 -2.34002 -0.823924
lfemur -31.801 7.12901 -23.4388
ltibia 32.7491 -0 0
lfoot -8.55928 4.24658 0.0475215
ltoes 0.315965 -0 0
rfemur 0.912187 7.69769 18.1606
rtibia 24.2071 -0 0
rfoot -1.86161 -0.551184 1.50368
rtoes -17.266 0 0
lowerback -7.3433 0.494483 -1.56457
upperback -2.23666 0.739629 1.88268
thorax 1.92876 0.360422 2.80052
lowerneck -18.7379 -5.74065 -13.6396
upperneck 18.0236 -7.27976 14.3333
head 9.88445 -2.819 6.32684
lclavicle -4.66021e-14 5.82016e-15 -4.99428e-31
lhumerus -38.5119 -11.5882 90.18
lradius 23.2139 -0 0
lwrist -0.640736 0 0
lhand -7.32311 -21.5285 -0.00995012
lfingers 7.12502 -0 0
lthumb 18.5591 7.59282 -0.0129964
rclavicle -4.66021e-14 5.82016e-15 -4.99428e-31
rhumerus -47.0884 7.85617 -86.3541
rradius 40.9311 -0 0
rwrist -22.5889 0 0
rhand -30.2804 -24.9766 -0.00231934
rfingers 7.12502 -0 0
rthumb -3.58822 -54.926 -0.00224845
260
root 9.45826 16.417 -0.182288 9.19645 -2.13429 -0.691268
lfemur -30.844 6.99315 -23.5164
ltibia 32.0523 -0 0
lfoot -8.68446 4.18048 0.0498334
ltoes 0.337973 -0 0
rfemur 0.0201575 8.05266 17.8673
rtibia 24.2351 -0 0
rfoot -2.50169 -0.95831 1.57756
rtoes -17.3869 0 0
lowerback -7.36135 0.377887 -1.68082
upperback -2.20186 0.593282 1.88445
thorax 1.99053 0.285665 2.85129
lowerneck -18.7488 -5.71868 -13.6245
upperneck 18.1046 -7.2506 14.2916
head 9.90808 -2.80809 6.31643
lclavicle -4.73045e-14 5.69632e-15 -5.23717e-31
lhumerus -37.9673 -12.0778 90.2891
lradius 23.4977 -0 0
lwrist -0.248463 0 0
lhand -7.40887 -21.5083 -0.0104341
lfingers 7.12502 -0 0
lthumb 18.4765 7.62023 -0.0136285
rclavicle -4.73045e-14 5.69632e-15 -5.23717e-31
rhumerus -47.1412 7.83042 -86.2863
rradius 40.8136 -0 0
rwrist -22.5345 0 0
rhand -30.2704 -25.017 -0.00243214
rfingers 7.12502 -0 0
rthumb -3.57856 -54.9665 -0.0023578
261
root 9.4706 16.4248 -0.0472674 9.14416 -1.92845 -0.558818
lfemur -29.8871 6.85859 -23.5962
ltibia 31.3556 -0 0
lfoot -8.80964 4.11437 0.0520009
ltoes 0.359981 -0 0
rfemur -0.874492 8.40305 17.5682
rtibia 24.263 -0 0
rfoot -3.14231 -1.36625 1.64689
rtoes -17.5077 0 0
lowerback -7.37916 0.261254 -1.79703
upperback -2.16705 0.446933 1.88613
thorax 2.05222 0.210853 2.90199
lowerneck -18.7597 -5.6967 -13.6095
upperneck 18.1856 -7.22138 14.2498
head 9.93171 -2.79718 6.30602
lclavicle -4.80068e-14 5.57249e-15 -5.46487e-31
lhumerus -37.4227 -12.5683 90.3936
lradius 23.7815 -0 0
lwrist 0.14381 0 0
lhand -7.49464 -21.4881 -0.0108878
lfingers 7.12502 -0 0
lthumb 18.394 7.64765 -0.0142212
rclavicle -4.80068e-14 5.57249e-15 -5.46487e-31
rhumerus -47.194 7.80473 -86.2184
rradius 40.6962 -0 0
rwrist -22.4801 0 0
rhand -30.2604 -25.0573 -0.00253788
rfingers 7.12502 -0 0
rthumb -3.56889 -55.007 -0.00246032
262
root 9.48293 16.4327 0.0877528 9.09235 -1.72248 -0.426571
lfemur -28.9303 6.72537 -23.6782
ltibia 30.6588 -0 0
lfoot -8.93482 4.04826 0.0540239
ltoes 0.38199 -0 0
rfemur -1.7718 8.74876 17.2633
rtibia 24.291 -0 0
rfoot -3.78342 -1.77495 1.71165
rtoes -17.6286 0 0
lowerback -7.39674 0.144585 -1.9132
upperback -2.13225 0.300583 1.88772
thorax 2.11385 0.135987 2.9526
lowerneck -18.7707 -5.67472 -13.5945
upperneck 18.2666 -7.19211 14.2081
head 9.95534 -2.78627 6.29562
lclavicle -4.87092e-14 5.44866e-15 -5.67739e-31
lhumerus -36.8779 -13.0598 90.4936
lradius 24.0653 -0 0
lwrist 0.536083 0 0
lhand -7.5804 -21.4678 -0.0113113
lfingers 7.12502 -0 0
lthumb 18.3115 7.67507 -0.0147743
rclavicle -4.87092e-14 5.44866e-15 -5.67739e-31
rhumerus -47.2469 7.77911 -86.1505
rradius 40.5787 -0 0
rwrist -22.4257 0 0
rhand -30.2504 -25.0977 -0.00263658
rfingers 7.12502 -0 0
rthumb -3.55923 -55.0475 -0.002556
263
root 9.49526 16.4406 0.222773 9.04102 -1.5164 -0.294525
lfemur -27.9735 6.59353 -23.7624
ltibia 29.962 -0 0
lfoot -9.06001 3.98215 0.0559025
ltoes 0.403998 -0 0
rfemur -2.6718 9.08971 16.9527
rtibia 24.3189 -0 0
rfoot -4.42501 -2.18437 1.77183
rtoes -17.7495 0 0
lowerback -7.41407 0.0278806 -2.02933
upperback -2.09746 0.154232 1.88922
thorax 2.17541 0.0610665 3.00313
lowerneck -18.7816 -5.65273 -13.5794
upperneck 18.3475 -7.16277 14.1665
head 9.97897 -2.77535 6.28522
lclavicle -4.94116e-14 5.32482e-15 -5.87474e-31
lhumerus -36.3328 -13.5522 90.5889
lradius 24.3491 -0 0
lwrist 0.928356 0 0
lhand -7.66617 -21.4476 -0.0117045
lfingers 7.12502 -0 0
lthumb 18.2289 7.70249 -0.0152879
rclavicle -4.94116e-14 5.32482e-15 -5.87474e-31
rhumerus -47.2998 7.75354 -86.0826
rradius 40.4613 -0 0
rwrist -22.3713 0 0
rhand -30.2404 -25.138 -0.00272823
rfingers 7.12502 -0 0
rthumb -3.54957 -55.0881 -0.00264485
264
root 9.5076 16.4484 0.357793 8.99017 -1.31019 -0.162674
lfemur -27.0168 6.46311 -23.8488
ltibia 29.2652 -0 0
lfoot -9.18519 3.91603 0.0576366
ltoes 0.426006 -0 0
rfemur -3.57453 9.42578 16.6363
rtibia 24.3469 -0 0
rfoot -5.06702 -2.59445 1.82743
rtoes -17.8703 0 0
lowerback -7.43117 -0.0888585 -2.14544
upperback -2.06267 0.00787986 1.89063
thorax 2.23691 -0.0139084 3.05359
lowerneck -18.7925 -5.63075 -13.5644
upperneck 18.4284 -7.13338 14.1249
head 10.0026 -2.76443 6.27482
lclavicle -5.01139e-14 5.20099e-15 -6.0569e-31
lhumerus -35.7875 -14.0455 90.6796
lradius 24.6329 -0 0
lwrist 1.32063 0 0
lhand -7.75194 -21.4274 -0.0120675
lfingers 7.12502 -0 0
lthumb 18.1464 7.72991 -0.015762
rclavicle -5.01139e-14 5.20099e-15 -6.0569e-31
rhumerus -47.3528 7.72804 -86.0147
rradius 40.3438 -0 0
rwrist -22.3169 0 0
rhand -30.2304 -25.1784 -0.00281283
rfingers 7.12502 -0 0
rthumb -3.5399 -55.1286 -0.00272686
265
root 9.51993 16.4563 0.492813 8.9398 -1.10388 -0.0310171
lfemur -26.0601 6.33414 -23.9374
ltibia 28.5684 -0 0
lfoot -9.31038 3.8499 0.0592263
ltoes 0.448014 -0 0
rfemur -4.48002 9.75689 16.3144
rtibia 24.3748 -0 0
rfoot -5.70944 -3.00514 1.87842
rtoes -17.9912 0 0
lowerback -7.44804 -0.205632 -2.2615
upperback -2.02788 -0.138473 1.89196
thorax 2.29834 -0.0889373 3.10396
lowerneck -18.8034 -5.60876 -13.5494
upperneck 18.5093 -7.10393 14.0833
head 10.0262 -2.75351 6.26444
lclavicle -5.08163e-14 5.07716e-15 -6.22388e-31
lhumerus -35.2417 -14.5396 90.7656
lradius 24.9168 -0 0
lwrist 1.7129 0 0
lhand -7.8377 -21.4072 -0.0124002
lfingers 7.12502 -0 0
lthumb 18.0638 7.75733 -0.0161966
rclavicle -5.08163e-14 5.07716e-15 -6.22388e-31
rhumerus -47.4057 7.7026 -85.9467
rradius 40.2264 -0 0
rwrist -22.2624 0 0
rhand -30.2204 -25.2188 -0.00289038
rfingers 7.12502 -0 0
rthumb -3.53024 -55.1691 -0.00280204
266
root 9.53226 16.4642 0.627833 8.88991 -0.897441 0.10045
lfemur -25.1035 6.20665 -24.0281
ltibia 27.8716 -0 0
lfoot -9.43557 3.78377 0.0606714
ltoes 0.470022 -0 0
rfemur -5.38829 10.0829 15.9868
rtibia 24.4028 -0 0
rfoot -6.35223 -3.41639 1.92481
rtoes -18.1121 0 0
lowerback -7.46467 -0.322439 -2.37753
upperback -1.9931 -0.284826 1.8932
thorax 2.3597 -0.16402 3.15425
lowerneck -18.8143 -5.58677 -13.5344
upperneck 18.5901 -7.07442 14.0418
head 10.0498 -2.74258 6.25405
lclavicle -5.15187e-14 4.95332e-15 -6.37568e-31
lhumerus -34.6955 -15.0344 90.847
lradius 25.2006 -0 0
lwrist 2.10518 0 0
lhand -7.92347 -21.387 -0.0127027
lfingers 7.12502 -0 0
lthumb 17.9813 7.78475 -0.0165917
rclavicle -5.15187e-14 4.95332e-15 -6.37568e-31
rhumerus -47.4587 7.67722 -85.8787
rradius 40.1089 -0 0
rwrist -22.208 0 0
rhand -30.2104 -25.2591 -0.00296088
rfingers 7.12502 -0 0
rthumb -3.52057 -55.2096 -0.00287039
267
root 9.5446 16.472 0.762854 8.84049 -0.690893 0.231731
lfemur -24.1468 6.08069 -24.1209
ltibia 27.1748 -0 0
lfoot -9.56076 3.71764 0.0619721
ltoes 0.49203 -0 0
rfemur -6.29937 10.4038 15.6537
rtibia 24.4307 -0 0
rfoot -6.99535 -3.82814 1.96659
rtoes -18.233 0 0
lowerback -7.48106 -0.43928 -2.49353
upperback -1.95832 -0.43118 1.89434
thorax 2.421 -0.239157 3.20446
lowerneck -18.8252 -5.56477 -13.5194
upperneck 18.6709 -7.04485 14.0004
head 10.0735 -2.73164 6.24367
lclavicle -5.2221e-14 4.82949e-15 -6.5123e-31
lhumerus -34.1488 -15.53 90.9236
lradius 25.4844 -0 0
lwrist 2.49745 0 0
lhand -8.00924 -21.3668 -0.012975
lfingers 7.12502 -0 0
lthumb 17.8987 7.81218 -0.0169473
rclavicle -5.2221e-14 4.82949e-15 -6.5123e-31
rhumerus -47.5117 7.65191 -85.8107
rradius 39.9915 -0 0
rwrist -22.1536 0 0
rhand -30.2004 -25.2995 -0.00302433
rfingers 7.12502 -0 0
rthumb -3.51091 -55.2501 -0.0029319
